<?xml version="1.0" standalone="no"?>
<!DOCTYPE svg PUBLIC "-//W3C//DTD SVG 20010904//EN"
 "http://www.w3.org/TR/2001/REC-SVG-20010904/DTD/svg10.dtd">
<svg version="1.0" xmlns="http://www.w3.org/2000/svg"
 width="225.000000pt" height="225.000000pt" viewBox="0 0 225.000000 225.000000"
 preserveAspectRatio="xMidYMid meet">

<g transform="translate(0.000000,225.000000) scale(0.100000,-0.100000)"
fill="#000000" stroke="none">
<path d="M940 2189 c-142 -37 -248 -98 -363 -208 -221 -212 -340 -512 -339
-856 0 -283 79 -530 234 -736 242 -321 626 -432 964 -279 284 128 496 432 560
800 24 142 15 401 -20 531 -104 395 -349 666 -675 750 -100 26 -259 25 -361
-2z m327 -5 c150 -31 269 -95 391 -208 144 -136 249 -320 304 -534 39 -153 49
-364 24 -517 -77 -464 -387 -812 -770 -863 -94 -12 -236 2 -325 32 -302 104
-532 388 -616 763 -25 109 -31 369 -11 483 99 567 542 940 1003 844z"/>
<path d="M1083 2065 c0 -33 2 -45 4 -27 2 18 2 45 0 60 -2 15 -4 0 -4 -33z"/>
<path d="M1106 2104 c-10 -26 -7 -59 8 -79 11 -16 17 -17 29 -7 12 10 16 10
20 0 4 -8 6 -7 6 5 1 9 6 26 13 36 9 15 9 25 1 43 l-12 23 0 -23 c-1 -15 -8
-26 -21 -29 -15 -4 -19 -11 -14 -25 4 -15 2 -19 -7 -16 -8 3 -15 19 -17 38 -3
30 -2 32 22 26 20 -5 24 -3 20 9 -8 20 -40 19 -48 -1z"/>
<path d="M987 2088 c-6 -21 -7 -21 -19 -6 -17 21 -68 13 -68 -11 0 -19 19 -91
25 -91 2 0 10 3 19 6 23 9 20 23 -4 17 -25 -7 -27 15 -2 33 16 12 15 13 -5 14
-28 0 -30 16 -3 30 16 9 22 6 35 -19 8 -17 16 -38 16 -48 1 -10 5 6 10 36 9
55 6 80 -4 39z"/>
<path d="M1199 2070 c-10 -32 -9 -43 1 -55 12 -15 14 -15 22 -1 12 21 25 20
31 -1 3 -10 5 6 6 35 0 28 -3 52 -8 52 -5 0 -16 -19 -25 -42 l-16 -43 5 48 c6
57 0 60 -16 7z"/>
<path d="M1286 2078 c-18 -25 -20 -56 -7 -77 10 -16 41 -8 41 10 0 8 -4 8 -15
-1 -21 -17 -29 8 -15 44 9 23 13 26 25 16 9 -7 15 -8 15 -2 0 5 -6 15 -14 21
-11 10 -17 7 -30 -11z"/>
<path d="M850 2079 c0 -5 5 -7 10 -4 6 3 10 8 10 11 0 2 -4 4 -10 4 -5 0 -10
-5 -10 -11z"/>
<path d="M886 2033 c3 -29 3 -53 0 -53 -4 0 -15 19 -26 43 -11 24 -19 34 -19
23 -1 -15 -4 -16 -16 -6 -21 17 -35 4 -35 -34 0 -38 33 -77 51 -59 13 13 8 54
-6 54 -5 0 -11 -5 -14 -12 -2 -7 1 -9 8 -5 6 4 11 1 11 -8 0 -9 -6 -16 -14
-16 -15 0 -26 21 -26 51 0 30 42 20 57 -13 17 -40 43 -37 42 5 -1 17 -5 43
-10 57 -6 17 -7 8 -3 -27z"/>
<path d="M1333 2029 c-6 -28 -7 -47 -3 -42 11 13 29 93 20 93 -4 0 -12 -23
-17 -51z"/>
<path d="M1365 2047 c-20 -28 -19 -76 0 -84 22 -8 44 25 45 63 0 40 -24 51
-45 21z m35 -18 c0 -28 -19 -61 -31 -54 -13 9 -11 49 3 63 18 18 28 15 28 -9z"/>
<path d="M744 1984 c4 -16 9 -38 12 -49 5 -20 5 -20 -10 -1 -9 11 -16 25 -16
32 0 7 -5 16 -11 20 -9 5 -10 -4 -5 -32 l6 -39 -20 24 c-27 31 -36 21 -16 -18
20 -37 20 -47 2 -32 -8 7 -16 8 -18 4 -3 -4 -3 -3 -2 4 2 6 -4 17 -13 25 -14
11 -16 10 -10 -14 4 -14 10 -33 13 -42 3 -9 1 -16 -5 -16 -6 0 -8 -7 -5 -15 7
-18 -17 -20 -34 -3 -18 18 -15 48 5 48 14 0 15 2 4 13 -10 10 -15 8 -26 -7
-12 -16 -12 -23 0 -46 8 -15 22 -30 31 -34 21 -8 51 22 46 47 -3 14 1 18 20
15 17 -2 23 2 22 15 -2 15 1 16 13 5 14 -11 15 -10 8 12 -6 20 -5 23 6 13 19
-18 29 -16 29 6 0 11 5 23 10 26 6 3 10 1 10 -4 0 -6 5 -11 10 -11 6 0 3 12
-6 26 -13 19 -19 22 -26 12 -5 -9 -7 -5 -6 11 2 13 -3 26 -11 29 -11 3 -12 -2
-7 -24z"/>
<path d="M1453 1975 c-26 -40 -29 -53 -9 -36 16 13 32 -2 21 -19 -3 -5 -1 -10
4 -10 6 0 11 11 11 25 0 14 -5 25 -11 25 -5 0 -7 5 -3 11 4 8 9 7 15 -2 6 -10
9 -6 9 14 0 36 -10 34 -37 -8z"/>
<path d="M1500 1961 c-5 -11 -10 -33 -10 -50 0 -24 4 -31 20 -31 11 0 20 -5
20 -12 0 -6 7 -3 15 8 14 18 14 17 15 -13 0 -28 3 -32 22 -30 17 1 22 -3 23
-23 0 -14 5 -24 13 -22 6 1 12 -2 12 -8 0 -15 37 -6 59 14 11 10 18 23 15 28
-3 5 -18 -1 -32 -14 -23 -21 -25 -21 -17 -3 4 11 10 29 13 40 5 20 5 20 -17 1
-12 -11 -20 -25 -17 -31 2 -7 -1 -12 -7 -12 -7 0 -12 13 -13 30 -1 16 2 23 6
17 8 -13 20 10 20 38 0 11 -10 6 -35 -18 -37 -36 -50 -22 -15 15 22 23 19 49
-6 59 -9 3 -21 -8 -34 -32 -11 -20 -18 -27 -15 -15 3 12 0 25 -6 29 -9 5 -10
2 -6 -9 3 -9 2 -19 -4 -22 -15 -10 -23 24 -11 51 14 30 32 31 32 2 0 -15 3
-19 10 -12 15 15 1 44 -21 44 -10 0 -23 -9 -29 -19z m90 -46 c0 -8 -7 -15 -15
-15 -9 0 -12 6 -9 15 4 8 10 15 15 15 5 0 9 -7 9 -15z"/>
<path d="M980 1925 c-79 -20 -126 -41 -200 -90 -147 -98 -255 -252 -317 -452
-25 -81 -27 -101 -27 -263 0 -161 2 -182 27 -265 15 -49 43 -121 62 -160 32
-63 35 -78 35 -152 l0 -83 70 0 c65 0 73 -3 117 -37 134 -102 316 -145 484
-113 68 13 190 70 245 115 37 31 48 34 115 37 l74 3 1 85 c1 67 6 95 24 130
70 137 100 269 100 440 0 216 -53 385 -171 545 -81 109 -205 204 -322 245 -80
28 -238 36 -317 15z m312 -41 c103 -34 179 -85 261 -174 37 -41 67 -77 67 -80
0 -11 -98 -15 -109 -5 -3 3 1 11 9 16 12 8 10 9 -6 4 -13 -3 -26 0 -33 9 -11
13 -18 13 -59 0 -26 -7 -59 -14 -73 -14 -34 0 -79 -36 -79 -63 -1 -62 -7 -67
-85 -67 l-72 0 -37 47 -37 48 -147 -3 c-163 -2 -148 5 -151 -72 l-1 -30 -106
0 c-82 0 -103 3 -97 13 4 6 8 17 9 23 1 6 25 45 53 87 44 64 76 98 161 169
142 121 343 155 532 92z m-225 -346 l40 -53 57 3 c71 5 86 -1 79 -27 -5 -18
-13 -21 -69 -21 l-64 0 0 -52 0 -53 52 4 c29 1 58 7 63 12 7 5 11 -4 11 -29 0
-20 3 -49 8 -64 l8 -28 -76 0 -76 0 0 -50 0 -50 55 -1 c30 -1 61 -2 68 -3 6
-1 11 7 10 17 -1 17 1 17 22 -3 15 -14 25 -39 30 -68 9 -65 24 -111 52 -154
34 -55 31 -105 -11 -167 -19 -27 -36 -54 -38 -58 -9 -24 -78 -63 -110 -63 -19
0 -43 -6 -54 -14 -16 -12 -21 -12 -34 -1 -12 11 -54 15 -160 17 l-145 3 -3
183 -2 182 149 0 c155 0 163 -2 174 -45 5 -20 5 -20 6 1 2 35 21 44 98 44 42
0 73 4 73 10 0 16 -133 12 -155 -4 -17 -12 -22 -12 -39 0 -15 10 -58 14 -168
14 l-148 0 0 -60 0 -60 -49 0 -50 0 -3 -42 -3 -43 -86 -3 -86 -3 -12 45 c-6
25 -11 47 -11 50 0 3 63 6 140 6 l140 0 0 50 0 50 -149 0 c-166 0 -161 -2
-161 71 l0 39 155 0 155 0 0 50 0 50 -151 0 -151 0 7 48 c4 26 12 50 18 54 7
4 72 8 145 8 l132 0 0 50 0 50 -125 0 c-69 0 -125 3 -125 6 0 3 5 14 10 25 10
17 22 19 130 19 l120 0 0 48 c0 27 3 52 7 55 3 4 64 7 133 7 l128 0 39 -52z
m532 -9 c44 -16 54 -39 46 -115 -5 -45 -4 -69 5 -79 9 -11 11 -37 8 -85 l-5
-70 23 25 c13 14 28 25 34 25 6 0 -2 -11 -17 -25 -19 -17 -24 -27 -17 -32 7
-5 14 -17 17 -28 3 -11 5 -2 4 19 -1 24 3 41 11 44 6 2 12 -3 12 -11 0 -9 4
-17 10 -19 12 -4 -26 -87 -48 -104 -9 -7 -25 -11 -34 -8 -20 6 -26 -22 -6 -28
6 -2 13 -29 16 -61 l4 -56 47 -3 c43 -3 46 -5 43 -28 -7 -50 -16 -52 -60 -14
-23 19 -42 31 -42 26 0 -24 -84 -101 -145 -132 -62 -31 -67 -32 -83 -17 -15
16 -15 17 8 18 l25 0 -22 16 c-26 18 -31 53 -8 53 22 0 87 34 125 66 28 24 80
94 80 109 0 17 -19 0 -30 -25 -20 -48 -84 -97 -132 -102 -23 -2 -47 2 -57 9
-9 7 -23 13 -32 13 -19 0 -35 30 -17 30 6 0 20 -8 30 -17 22 -20 35 -10 43 35
5 30 4 32 -24 32 -17 0 -32 4 -35 9 -9 14 55 22 92 12 28 -8 32 -7 32 8 0 21
-74 76 -89 66 -6 -3 -11 2 -11 12 0 11 -5 24 -11 30 -9 9 -9 26 0 69 6 32 11
67 11 78 0 26 -47 54 -82 50 -24 -2 -26 1 -31 54 -9 100 41 160 121 148 21 -3
60 -2 87 3 70 12 69 12 104 0z m-352 -146 c-3 -10 -5 -4 -5 12 0 17 2 24 5 18
2 -7 2 -21 0 -30z m112 -139 c5 4 12 2 15 -3 8 -13 -31 -44 -44 -36 -9 6 -9
10 1 17 11 7 11 11 2 15 -7 2 -13 9 -13 15 0 6 6 6 15 -2 8 -6 19 -9 24 -6z
m-30 -64 c26 -13 27 -40 2 -40 -27 0 -42 23 -47 72 l-5 43 15 -32 c8 -17 24
-36 35 -43z m451 -3 c0 -2 -10 -12 -22 -23 l-23 -19 19 23 c18 21 26 27 26 19z
m-9 -57 c5 0 9 -20 9 -45 l0 -45 -56 0 -56 0 16 23 c9 12 24 34 34 50 9 15 23
25 30 22 8 -3 18 -5 23 -5z m-428 -45 c-3 -8 -9 -15 -14 -15 -10 0 -12 24 -3
33 11 11 24 -3 17 -18z m12 -85 c3 -5 1 -10 -4 -10 -6 0 -11 5 -11 10 0 6 2
10 4 10 3 0 8 -4 11 -10z m-585 -241 l0 -129 146 0 c145 0 184 -7 184 -35 0
-9 8 -6 25 11 24 24 26 24 202 24 98 -1 186 2 196 5 14 6 17 1 17 -29 l0 -36
-177 -1 c-214 -1 -220 -1 -240 -22 -15 -15 -17 -15 -29 1 -12 17 -57 20 -366
22 l-48 0 0 159 0 160 28 3 c62 8 62 8 62 -133z m900 101 c19 -35 -33 -114
-116 -177 l-44 -34 -30 33 c-16 18 -30 36 -30 40 0 4 27 22 61 38 33 17 80 51
102 75 23 25 43 45 44 45 1 0 7 -9 13 -20z m-1002 -182 l3 -128 207 -2 c204
-3 207 -3 218 -26 l11 -23 17 26 16 25 205 0 205 0 0 50 c0 46 3 53 50 99 l50
50 0 -129 0 -130 -217 -1 c-251 0 -305 -5 -316 -25 -8 -13 -11 -13 -22 3 -12
16 -35 18 -269 21 l-256 3 0 153 c0 84 3 156 7 160 4 4 25 6 48 4 l40 -3 3
-127z m735 77 l27 -33 -31 -16 c-18 -9 -34 -16 -36 -16 -1 0 -3 23 -3 50 0 28
3 50 8 49 4 0 19 -15 35 -34z"/>
<path d="M780 1421 c0 -67 4 -111 10 -111 6 0 10 41 10 104 0 59 -4 108 -10
111 -6 4 -10 -33 -10 -104z"/>
<path d="M840 1420 c0 -72 4 -109 10 -105 6 3 10 50 10 105 0 55 -4 102 -10
105 -6 4 -10 -33 -10 -105z"/>
<path d="M870 1420 c0 -72 4 -109 10 -105 6 3 10 50 10 105 0 55 -4 102 -10
105 -6 4 -10 -33 -10 -105z"/>
<path d="M900 1415 c0 -135 18 -132 23 5 l3 95 2 -100 c2 -93 3 -101 22 -101
19 0 20 8 22 101 l2 100 5 -98 c3 -53 9 -97 14 -97 4 0 7 2 7 5 0 3 0 49 0
103 l0 97 -50 0 -50 0 0 -110z m59 -12 c-3 -87 -9 -73 -13 27 -2 55 0 76 6 60
5 -13 8 -52 7 -87z"/>
<path d="M810 1414 c0 -67 4 -103 10 -99 6 3 10 50 10 106 0 59 -4 99 -10 99
-6 0 -10 -42 -10 -106z"/>
<path d="M770 1155 c0 -63 4 -105 10 -105 6 0 10 42 10 105 0 63 -4 105 -10
105 -6 0 -10 -42 -10 -105z"/>
<path d="M800 1155 c0 -63 4 -105 10 -105 6 0 10 42 10 105 0 63 -4 105 -10
105 -6 0 -10 -42 -10 -105z"/>
<path d="M830 1155 c0 -63 4 -105 10 -105 6 0 10 42 10 105 0 63 -4 105 -10
105 -6 0 -10 -42 -10 -105z"/>
<path d="M860 1155 c0 -63 4 -105 10 -105 6 0 10 42 10 105 0 63 -4 105 -10
105 -6 0 -10 -42 -10 -105z"/>
<path d="M890 1155 c0 -63 4 -105 10 -105 6 0 10 42 10 105 0 63 -4 105 -10
105 -6 0 -10 -42 -10 -105z"/>
<path d="M920 1155 c0 -63 4 -105 10 -105 6 0 10 42 10 105 0 63 -4 105 -10
105 -6 0 -10 -42 -10 -105z"/>
<path d="M950 1155 c0 -63 4 -105 10 -105 6 0 10 42 10 105 0 63 -4 105 -10
105 -6 0 -10 -42 -10 -105z"/>
<path d="M980 1155 c0 -63 4 -105 10 -105 6 0 10 42 10 105 0 63 -4 105 -10
105 -6 0 -10 -42 -10 -105z"/>
<path d="M1450 1305 c-7 -8 -8 -15 -2 -15 10 0 23 -30 27 -63 1 -10 10 -26 20
-35 16 -16 17 -16 6 6 -10 20 -9 22 11 22 20 0 21 1 4 13 -15 11 -13 13 18 12
37 -2 66 17 46 30 -16 10 -12 28 6 21 10 -4 14 -1 12 6 -7 20 -132 23 -148 3z
m100 -25 c11 -7 7 -10 -18 -10 -20 0 -31 4 -27 10 8 13 26 13 45 0z"/>
<path d="M1410 1122 c0 -4 9 -13 20 -20 22 -13 27 -3 8 16 -14 14 -28 16 -28
4z"/>
<path d="M522 1808 c-16 -16 -15 -28 6 -51 16 -19 16 -20 -5 -8 -30 15 -40 14
-47 -6 -4 -11 4 -28 26 -50 27 -28 33 -31 41 -17 5 8 6 27 2 41 -5 23 -4 25 9
14 18 -15 36 -6 35 17 0 11 -3 12 -6 5 -2 -7 -11 -13 -19 -13 -10 0 -13 7 -8
28 4 19 3 23 -4 13 -5 -7 -15 -10 -21 -6 -9 5 -9 10 0 21 15 18 7 28 -9 12z
m12 -90 c5 -9 7 -20 3 -24 -8 -8 -47 24 -47 38 0 15 32 5 44 -14z"/>
<path d="M1686 1775 c-43 -46 -29 -92 19 -61 31 21 41 54 22 73 -14 14 -18 13
-41 -12z m38 -3 c8 -13 -23 -52 -40 -52 -18 0 -18 10 2 38 16 23 29 28 38 14z"/>
<path d="M1720 1715 c-31 -32 -32 -52 -1 -22 14 12 13 8 -7 -43 -3 -8 9 -3 27
13 43 36 65 23 23 -14 -40 -36 -41 -47 -2 -19 41 29 58 15 20 -17 -31 -26 -38
-47 -19 -59 7 -4 9 0 5 14 -9 28 12 38 30 16 13 -18 14 -17 8 9 -7 29 10 38
20 11 4 -9 9 -15 12 -12 6 6 -34 87 -52 105 -9 10 -15 9 -24 -3 -18 -20 -24
-10 -10 16 21 38 5 41 -30 5z"/>
<path d="M419 1644 c-11 -14 -8 -20 21 -45 34 -28 34 -29 7 -19 -43 15 -62 13
-47 -4 6 -8 19 -12 28 -9 13 3 14 2 4 -4 -10 -8 -10 -12 3 -23 8 -7 15 -17 15
-23 0 -5 -8 -3 -18 6 -23 21 -58 22 -66 1 -9 -23 -10 -22 34 -44 44 -22 40
-24 56 29 2 7 -1 20 -7 27 -9 11 -6 16 14 23 37 14 44 47 16 77 -26 28 -41 30
-60 8z m61 -25 c6 -10 6 -20 1 -23 -13 -9 -55 29 -47 42 9 15 34 5 46 -19z
m-57 -107 c10 -10 14 -21 11 -25 -10 -9 -54 15 -54 30 0 19 24 16 43 -5z"/>
<path d="M350 1486 c0 -9 82 -48 87 -42 3 3 -6 10 -21 16 -15 5 -36 15 -47 20
-10 6 -19 8 -19 6z"/>
<path d="M1838 1467 c-26 -10 -40 -47 -18 -47 5 0 7 6 5 13 -3 7 11 19 32 29
42 18 25 22 -19 5z"/>
<path d="M347 1453 c-12 -12 -7 -41 7 -46 8 -3 20 1 26 9 7 8 16 14 21 14 14
0 11 -28 -3 -33 -8 -3 -6 -6 5 -6 11 -1 17 6 17 19 0 26 -25 36 -45 20 -9 -7
-19 -9 -23 -5 -4 4 -1 10 6 12 6 3 12 9 12 14 0 11 -14 12 -23 2z"/>
<path d="M1832 1408 c-31 -31 6 -66 49 -45 35 18 32 51 -6 55 -17 2 -36 -3
-43 -10z m61 -13 c-3 -17 -29 -29 -48 -21 -14 5 -15 9 -5 22 14 16 56 16 53
-1z"/>
<path d="M325 1381 c-8 -28 -1 -38 35 -46 31 -7 34 -12 24 -39 -9 -24 -24 -19
-24 7 -1 20 -2 20 -11 4 -12 -20 -31 -13 -22 8 3 8 0 15 -6 15 -6 0 -11 -15
-11 -33 0 -27 6 -37 28 -48 l27 -13 -32 -4 c-25 -2 -33 -8 -33 -23 0 -16 7
-19 48 -17 43 1 44 2 10 5 -45 5 -51 23 -9 23 43 0 46 15 6 34 -46 22 -44 28
5 20 l40 -7 0 37 c0 25 -4 36 -15 36 -8 0 -15 5 -15 10 0 6 9 10 20 10 27 0
25 17 -2 23 -13 2 -30 8 -40 11 -11 5 -18 1 -23 -13z m35 -16 c0 -8 -4 -15 -9
-15 -13 0 -22 16 -14 24 11 11 23 6 23 -9z"/>
<path d="M1872 1340 c-46 -25 -51 -32 -22 -29 40 3 60 0 60 -11 0 -5 -16 -10
-35 -10 -19 0 -35 -5 -35 -11 0 -7 10 -9 28 -5 l27 7 -30 -26 c-30 -25 -30
-25 -10 -41 19 -14 19 -16 3 -28 -19 -14 -25 -66 -7 -66 5 0 7 5 4 10 -9 15
19 12 41 -5 28 -21 34 -18 33 13 -1 16 -3 20 -6 10 -6 -22 -12 -22 -42 1 l-24
18 36 12 c47 16 47 28 0 37 l-38 7 40 13 c32 10 35 12 15 13 -25 2 -25 2 -5
19 22 19 22 52 -1 52 -19 0 -18 10 4 26 24 19 3 15 -36 -6z"/>
<path d="M315 1173 c11 -3 23 -10 26 -16 4 -5 14 -7 24 -4 27 11 6 27 -33 26
-22 -1 -29 -3 -17 -6z"/>
<path d="M313 1143 c-28 -11 -11 -23 30 -22 23 1 32 4 20 6 -13 2 -23 9 -23
14 0 10 -8 10 -27 2z"/>
<path d="M305 1105 c6 -2 22 -6 38 -9 39 -9 34 -26 -8 -26 -19 0 -35 -5 -35
-10 0 -14 72 -1 82 14 12 18 -13 36 -51 35 -20 0 -31 -2 -26 -4z"/>
<path d="M911 241 c-6 -11 -11 -36 -11 -55 0 -29 4 -36 20 -36 11 0 20 6 20
13 0 6 9 1 20 -13 25 -33 38 -19 45 45 6 55 0 51 -10 -7 -9 -55 -29 -49 -23 7
3 25 2 45 -3 45 -5 0 -9 -13 -9 -30 0 -20 -5 -30 -15 -30 -8 0 -15 -5 -15 -11
0 -5 -4 -7 -10 -4 -13 8 -13 45 0 65 9 13 11 13 21 0 8 -13 10 -12 7 4 -4 27
-25 31 -37 7z"/>
<path d="M1295 250 c-3 -5 -1 -10 4 -10 6 0 11 -18 11 -39 0 -22 5 -43 10 -46
6 -4 10 15 10 49 0 42 -4 56 -14 56 -8 0 -18 -4 -21 -10z"/>
<path d="M1246 215 c-17 -40 -26 -45 -26 -14 0 12 4 18 11 13 7 -4 10 -2 8 5
-9 25 -24 10 -24 -21 0 -21 5 -32 13 -31 6 2 12 -4 12 -12 0 -9 -6 -12 -17 -8
-15 5 -16 4 -5 -8 11 -12 15 -11 26 3 9 12 16 14 23 7 6 -6 16 -8 22 -5 18 11
13 45 -9 58 -24 15 -27 33 -4 24 14 -5 15 -4 4 9 -17 20 -18 20 -34 -20z m44
-46 c0 -5 -4 -9 -10 -9 -5 0 -10 7 -10 16 0 8 5 12 10 9 6 -3 10 -10 10 -16z"/>
<path d="M1016 184 c-7 -51 7 -73 31 -52 10 8 13 7 13 -3 1 -9 6 -7 16 6 15
20 15 20 30 1 17 -24 17 -21 3 44 -12 57 -23 58 -35 3 l-8 -38 -5 40 c-9 60
-36 59 -45 -1z m34 15 c0 -5 -4 -9 -10 -9 -5 0 -10 7 -10 16 0 8 5 12 10 9 6
-3 10 -10 10 -16z m0 -44 c0 -8 -4 -15 -9 -15 -13 0 -22 16 -14 24 11 11 23 6
23 -9z"/>
<path d="M1178 218 c-4 -9 -1 -36 7 -60 14 -47 18 -27 7 37 -5 28 -10 35 -14
23z"/>
</g>
</svg>
